<?xml version="1.0" encoding="UTF-8"?>
<svg xmlns="http://www.w3.org/2000/svg" xmlns:xlink="http://www.w3.org/1999/xlink" width="375pt" height="374.999991pt" viewBox="0 0 375 374.999991" version="1.2">
<defs>
<clipPath id="clip1">
  <path d="M 189 104 L 197 104 L 197 112 L 189 112 Z M 189 104 "/>
</clipPath>
<clipPath id="clip2">
  <path d="M 258.0625 -23.023438 L 377.855469 40.835938 L 307.292969 173.203125 L 187.5 109.339844 Z M 258.0625 -23.023438 "/>
</clipPath>
<clipPath id="clip3">
  <path d="M 258.0625 -23.023438 L 377.855469 40.835938 L 307.292969 173.203125 L 187.5 109.339844 Z M 258.0625 -23.023438 "/>
</clipPath>
<clipPath id="clip4">
  <path d="M 258.0625 -23.023438 L 378.1875 41.011719 L 307.625 173.378906 L 187.5 109.339844 Z M 258.0625 -23.023438 "/>
</clipPath>
<clipPath id="clip5">
  <path d="M 191.449219 102.695312 L 198.429688 106.414062 L 194.730469 113.355469 L 187.75 109.632812 Z M 191.449219 102.695312 "/>
</clipPath>
<clipPath id="clip6">
  <path d="M 191.449219 102.695312 L 198.429688 106.414062 L 194.792969 113.238281 L 187.8125 109.515625 Z M 191.449219 102.695312 "/>
</clipPath>
<clipPath id="clip7">
  <path d="M 213 69 L 236 69 L 236 92 L 213 92 Z M 213 69 "/>
</clipPath>
<clipPath id="clip8">
  <path d="M 258.0625 -23.023438 L 377.855469 40.835938 L 307.292969 173.203125 L 187.5 109.339844 Z M 258.0625 -23.023438 "/>
</clipPath>
<clipPath id="clip9">
  <path d="M 258.0625 -23.023438 L 377.855469 40.835938 L 307.292969 173.203125 L 187.5 109.339844 Z M 258.0625 -23.023438 "/>
</clipPath>
<clipPath id="clip10">
  <path d="M 258.0625 -23.023438 L 378.1875 41.011719 L 307.625 173.378906 L 187.5 109.339844 Z M 258.0625 -23.023438 "/>
</clipPath>
<clipPath id="clip11">
  <path d="M 196 87 L 212 87 L 212 103 L 196 103 Z M 196 87 "/>
</clipPath>
<clipPath id="clip12">
  <path d="M 258.0625 -23.023438 L 377.855469 40.835938 L 307.292969 173.203125 L 187.5 109.339844 Z M 258.0625 -23.023438 "/>
</clipPath>
<clipPath id="clip13">
  <path d="M 258.0625 -23.023438 L 377.855469 40.835938 L 307.292969 173.203125 L 187.5 109.339844 Z M 258.0625 -23.023438 "/>
</clipPath>
<clipPath id="clip14">
  <path d="M 258.0625 -23.023438 L 378.1875 41.011719 L 307.625 173.378906 L 187.5 109.339844 Z M 258.0625 -23.023438 "/>
</clipPath>
<clipPath id="clip15">
  <path d="M 235 0 L 363 0 L 363 114 L 235 114 Z M 235 0 "/>
</clipPath>
<clipPath id="clip16">
  <path d="M 258.0625 -23.023438 L 377.855469 40.835938 L 307.292969 173.203125 L 187.5 109.339844 Z M 258.0625 -23.023438 "/>
</clipPath>
<clipPath id="clip17">
  <path d="M 258.0625 -23.023438 L 377.855469 40.835938 L 307.292969 173.203125 L 187.5 109.339844 Z M 258.0625 -23.023438 "/>
</clipPath>
<clipPath id="clip18">
  <path d="M 258.0625 -23.023438 L 378.1875 41.011719 L 307.625 173.378906 L 187.5 109.339844 Z M 258.0625 -23.023438 "/>
</clipPath>
<clipPath id="clip19">
  <path d="M 267.894531 -17.78125 L 378.28125 41.066406 L 329.511719 132.542969 L 219.128906 73.699219 Z M 267.894531 -17.78125 "/>
</clipPath>
<clipPath id="clip20">
  <path d="M 267.894531 -17.78125 L 378.1875 41.015625 L 329.421875 132.496094 L 219.128906 73.699219 Z M 267.894531 -17.78125 "/>
</clipPath>
</defs>
<g id="surface1">
<path style=" stroke:none;fill-rule:nonzero;fill:rgb(37.649536%,74.508667%,57.249451%);fill-opacity:1;" d="M 296.875 187.5 C 296.875 189.289062 296.832031 191.078125 296.742188 192.867188 C 296.65625 194.65625 296.523438 196.4375 296.347656 198.21875 C 296.171875 200.003906 295.953125 201.777344 295.691406 203.546875 C 295.429688 205.320312 295.121094 207.082031 294.773438 208.839844 C 294.425781 210.59375 294.03125 212.339844 293.597656 214.074219 C 293.164062 215.8125 292.683594 217.535156 292.164062 219.25 C 291.644531 220.960938 291.085938 222.660156 290.480469 224.347656 C 289.878906 226.03125 289.234375 227.703125 288.550781 229.355469 C 287.863281 231.007812 287.140625 232.644531 286.375 234.265625 C 285.609375 235.882812 284.804688 237.480469 283.960938 239.058594 C 283.117188 240.636719 282.234375 242.195312 281.3125 243.730469 C 280.394531 245.265625 279.4375 246.777344 278.441406 248.265625 C 277.449219 249.753906 276.417969 251.21875 275.351562 252.65625 C 274.285156 254.09375 273.183594 255.503906 272.046875 256.886719 C 270.914062 258.269531 269.742188 259.625 268.542969 260.953125 C 267.339844 262.277344 266.105469 263.574219 264.839844 264.839844 C 263.574219 266.105469 262.277344 267.339844 260.953125 268.542969 C 259.625 269.742188 258.269531 270.914062 256.886719 272.046875 C 255.503906 273.183594 254.09375 274.285156 252.65625 275.351562 C 251.21875 276.417969 249.753906 277.449219 248.265625 278.441406 C 246.777344 279.4375 245.265625 280.394531 243.730469 281.3125 C 242.195312 282.234375 240.636719 283.117188 239.058594 283.960938 C 237.480469 284.804688 235.882812 285.609375 234.265625 286.375 C 232.644531 287.140625 231.007812 287.863281 229.355469 288.550781 C 227.703125 289.234375 226.03125 289.878906 224.347656 290.480469 C 222.660156 291.085938 220.960938 291.644531 219.25 292.164062 C 217.535156 292.683594 215.8125 293.164062 214.074219 293.597656 C 212.339844 294.03125 210.59375 294.425781 208.839844 294.773438 C 207.082031 295.121094 205.320312 295.429688 203.546875 295.691406 C 201.777344 295.953125 200.003906 296.171875 198.21875 296.347656 C 196.4375 296.523438 194.65625 296.65625 192.867188 296.742188 C 191.078125 296.832031 189.289062 296.875 187.5 296.875 C 185.710938 296.875 183.921875 296.832031 182.132812 296.742188 C 180.34375 296.65625 178.5625 296.523438 176.78125 296.347656 C 174.996094 296.171875 173.222656 295.953125 171.453125 295.691406 C 169.679688 295.429688 167.917969 295.121094 166.160156 294.773438 C 164.40625 294.425781 162.660156 294.03125 160.925781 293.597656 C 159.1875 293.164062 157.464844 292.683594 155.75 292.164062 C 154.039062 291.644531 152.339844 291.085938 150.652344 290.480469 C 148.96875 289.878906 147.296875 289.234375 145.644531 288.550781 C 143.992188 287.863281 142.355469 287.140625 140.734375 286.375 C 139.117188 285.609375 137.519531 284.804688 135.941406 283.960938 C 134.363281 283.117188 132.804688 282.234375 131.269531 281.3125 C 129.734375 280.394531 128.222656 279.4375 126.734375 278.441406 C 125.246094 277.449219 123.78125 276.417969 122.34375 275.351562 C 120.90625 274.285156 119.496094 273.183594 118.113281 272.046875 C 116.730469 270.914062 115.375 269.742188 114.046875 268.542969 C 112.722656 267.339844 111.425781 266.105469 110.160156 264.839844 C 108.894531 263.574219 107.660156 262.277344 106.457031 260.953125 C 105.257812 259.625 104.085938 258.269531 102.953125 256.886719 C 101.816406 255.503906 100.714844 254.09375 99.648438 252.65625 C 98.582031 251.21875 97.550781 249.753906 96.558594 248.265625 C 95.5625 246.777344 94.605469 245.265625 93.6875 243.730469 C 92.765625 242.195312 91.882812 240.636719 91.039062 239.058594 C 90.195312 237.480469 89.390625 235.882812 88.625 234.265625 C 87.859375 232.644531 87.136719 231.007812 86.449219 229.355469 C 85.765625 227.703125 85.121094 226.03125 84.519531 224.347656 C 83.914062 222.660156 83.355469 220.960938 82.835938 219.25 C 82.316406 217.535156 81.835938 215.8125 81.402344 214.074219 C 80.96875 212.339844 80.574219 210.59375 80.226562 208.839844 C 79.878906 207.082031 79.570312 205.320312 79.308594 203.546875 C 79.046875 201.777344 78.828125 200.003906 78.652344 198.21875 C 78.476562 196.4375 78.34375 194.65625 78.257812 192.867188 C 78.167969 191.078125 78.125 189.289062 78.125 187.5 C 78.125 185.710938 78.167969 183.921875 78.257812 182.132812 C 78.34375 180.34375 78.476562 178.5625 78.652344 176.78125 C 78.828125 174.996094 79.046875 173.222656 79.308594 171.453125 C 79.570312 169.679688 79.878906 167.917969 80.226562 166.160156 C 80.574219 164.40625 80.96875 162.660156 81.402344 160.925781 C 81.835938 159.1875 82.316406 157.464844 82.835938 155.75 C 83.355469 154.039062 83.914062 152.339844 84.519531 150.652344 C 85.121094 148.96875 85.765625 147.296875 86.449219 145.644531 C 87.136719 143.988281 87.859375 142.355469 88.625 140.734375 C 89.390625 139.117188 90.195312 137.519531 91.039062 135.941406 C 91.882812 134.363281 92.765625 132.804688 93.6875 131.269531 C 94.605469 129.734375 95.5625 128.222656 96.558594 126.734375 C 97.550781 125.246094 98.582031 123.78125 99.648438 122.34375 C 100.714844 120.90625 101.816406 119.496094 102.953125 118.113281 C 104.085938 116.730469 105.257812 115.375 106.457031 114.046875 C 107.660156 112.722656 108.894531 111.425781 110.160156 110.160156 C 111.425781 108.894531 112.722656 107.660156 114.046875 106.457031 C 115.375 105.257812 116.730469 104.085938 118.113281 102.953125 C 119.496094 101.816406 120.90625 100.714844 122.34375 99.648438 C 123.78125 98.582031 125.246094 97.550781 126.734375 96.558594 C 128.222656 95.5625 129.734375 94.605469 131.269531 93.6875 C 132.804688 92.765625 134.363281 91.882812 135.941406 91.039062 C 137.519531 90.195312 139.117188 89.390625 140.734375 88.625 C 142.355469 87.859375 143.992188 87.136719 145.644531 86.449219 C 147.296875 85.765625 148.96875 85.121094 150.652344 84.519531 C 152.339844 83.914062 154.039062 83.355469 155.75 82.835938 C 157.464844 82.316406 159.1875 81.835938 160.925781 81.402344 C 162.660156 80.96875 164.40625 80.574219 166.160156 80.226562 C 167.917969 79.878906 169.679688 79.570312 171.453125 79.308594 C 173.222656 79.046875 174.996094 78.828125 176.78125 78.652344 C 178.5625 78.476562 180.34375 78.34375 182.132812 78.257812 C 183.921875 78.167969 185.710938 78.125 187.5 78.125 C 189.289062 78.125 191.078125 78.167969 192.867188 78.257812 C 194.65625 78.34375 196.4375 78.476562 198.21875 78.652344 C 200.003906 78.828125 201.777344 79.046875 203.546875 79.308594 C 205.320312 79.570312 207.082031 79.878906 208.839844 80.226562 C 210.59375 80.574219 212.339844 80.96875 214.074219 81.402344 C 215.8125 81.835938 217.535156 82.316406 219.25 82.835938 C 220.960938 83.355469 222.660156 83.914062 224.347656 84.519531 C 226.03125 85.121094 227.703125 85.765625 229.355469 86.449219 C 231.007812 87.136719 232.644531 87.859375 234.265625 88.625 C 235.882812 89.390625 237.480469 90.195312 239.058594 91.039062 C 240.636719 91.882812 242.195312 92.765625 243.730469 93.6875 C 245.265625 94.605469 246.777344 95.5625 248.265625 96.558594 C 249.753906 97.550781 251.21875 98.582031 252.65625 99.648438 C 254.09375 100.714844 255.503906 101.816406 256.886719 102.953125 C 258.269531 104.085938 259.625 105.257812 260.953125 106.457031 C 262.277344 107.660156 263.574219 108.894531 264.839844 110.160156 C 266.105469 111.425781 267.339844 112.722656 268.542969 114.046875 C 269.742188 115.375 270.914062 116.730469 272.046875 118.113281 C 273.183594 119.496094 274.285156 120.90625 275.351562 122.34375 C 276.417969 123.78125 277.449219 125.246094 278.441406 126.734375 C 279.4375 128.222656 280.394531 129.734375 281.3125 131.269531 C 282.234375 132.804688 283.117188 134.363281 283.960938 135.941406 C 284.804688 137.519531 285.609375 139.117188 286.375 140.734375 C 287.140625 142.355469 287.863281 143.988281 288.550781 145.644531 C 289.234375 147.296875 289.878906 148.96875 290.480469 150.652344 C 291.085938 152.339844 291.644531 154.039062 292.164062 155.75 C 292.683594 157.464844 293.164062 159.1875 293.597656 160.925781 C 294.03125 162.660156 294.425781 164.40625 294.773438 166.160156 C 295.121094 167.917969 295.429688 169.679688 295.691406 171.453125 C 295.953125 173.222656 296.171875 174.996094 296.347656 176.78125 C 296.523438 178.5625 296.65625 180.34375 296.742188 182.132812 C 296.832031 183.921875 296.875 185.710938 296.875 187.5 Z M 296.875 187.5 "/>
<path style=" stroke:none;fill-rule:nonzero;fill:rgb(12.159729%,12.939453%,16.859436%);fill-opacity:1;" d="M 187.5 300 C 125.464844 300 75 249.535156 75 187.5 C 75 125.464844 125.464844 75 187.5 75 C 249.535156 75 300 125.464844 300 187.5 C 300 249.535156 249.535156 300 187.5 300 Z M 187.5 81.25 C 128.914062 81.25 81.25 128.914062 81.25 187.5 C 81.25 246.085938 128.914062 293.75 187.5 293.75 C 246.085938 293.75 293.75 246.085938 293.75 187.5 C 293.75 128.914062 246.085938 81.25 187.5 81.25 Z M 187.5 81.25 "/>
<path style=" stroke:none;fill-rule:nonzero;fill:rgb(0%,0%,0%);fill-opacity:1;" d="M 235.9375 106.960938 C 235.667969 106.960938 235.394531 106.890625 235.144531 106.742188 C 233.136719 105.558594 231.070312 104.4375 228.996094 103.414062 C 228.222656 103.027344 227.90625 102.09375 228.289062 101.320312 C 228.667969 100.542969 229.601562 100.230469 230.382812 100.609375 C 232.523438 101.667969 234.664062 102.828125 236.734375 104.054688 C 237.476562 104.492188 237.722656 105.449219 237.285156 106.195312 C 236.992188 106.683594 236.46875 106.960938 235.9375 106.960938 Z M 235.9375 106.960938 "/>
<path style=" stroke:none;fill-rule:nonzero;fill:rgb(0%,0%,0%);fill-opacity:1;" d="M 245.3125 113.277344 C 244.980469 113.277344 244.648438 113.171875 244.367188 112.957031 C 243.355469 112.183594 242.332031 111.433594 241.292969 110.710938 C 240.585938 110.210938 240.414062 109.238281 240.910156 108.53125 C 241.40625 107.824219 242.382812 107.652344 243.085938 108.148438 C 244.160156 108.898438 245.222656 109.675781 246.265625 110.476562 C 246.949219 110.996094 247.082031 111.976562 246.554688 112.664062 C 246.246094 113.070312 245.78125 113.277344 245.3125 113.277344 Z M 245.3125 113.277344 "/>
<path style=" stroke:none;fill-rule:nonzero;fill:rgb(12.159729%,12.939453%,16.859436%);fill-opacity:1;" d="M 187.5 284.375 C 134.085938 284.375 90.625 240.914062 90.625 187.5 C 90.625 134.085938 134.085938 90.625 187.5 90.625 C 198.960938 90.625 210.179688 92.609375 220.851562 96.523438 C 221.660156 96.820312 222.078125 97.714844 221.777344 98.523438 C 221.480469 99.335938 220.585938 99.761719 219.773438 99.453125 C 209.449219 95.667969 198.589844 93.75 187.5 93.75 C 135.804688 93.75 93.75 135.804688 93.75 187.5 C 93.75 239.195312 135.804688 281.25 187.5 281.25 C 239.195312 281.25 281.25 239.195312 281.25 187.5 C 281.25 161.128906 270.046875 135.824219 250.511719 118.085938 C 249.871094 117.503906 249.824219 116.515625 250.40625 115.878906 C 250.988281 115.238281 251.976562 115.195312 252.613281 115.773438 C 272.796875 134.101562 284.375 160.246094 284.375 187.5 C 284.375 240.914062 240.914062 284.375 187.5 284.375 Z M 187.5 284.375 "/>
<path style=" stroke:none;fill-rule:nonzero;fill:rgb(100%,100%,100%);fill-opacity:1;" d="M 256.773438 177.664062 C 254.835938 177.664062 252.871094 177.148438 251.097656 176.070312 C 197.898438 143.710938 126.617188 162.425781 125.90625 162.617188 C 120.074219 164.183594 114.070312 160.75 112.492188 154.929688 C 110.910156 149.101562 114.339844 143.101562 120.164062 141.511719 C 123.441406 140.617188 201.101562 120.054688 262.46875 157.382812 C 267.628906 160.519531 269.269531 167.25 266.128906 172.410156 C 264.066406 175.789062 260.464844 177.664062 256.773438 177.664062 Z M 256.773438 177.664062 "/>
<path style=" stroke:none;fill-rule:nonzero;fill:rgb(12.159729%,12.939453%,16.859436%);fill-opacity:1;" d="M 256.773438 179.226562 C 254.488281 179.226562 252.242188 178.59375 250.285156 177.402344 C 197.484375 145.285156 127.023438 163.933594 126.320312 164.125 C 119.679688 165.910156 112.789062 161.976562 110.984375 155.335938 C 109.179688 148.6875 113.117188 141.808594 119.753906 140 C 123.054688 139.097656 201.351562 118.375 263.28125 156.039062 C 266.132812 157.773438 268.140625 160.519531 268.929688 163.761719 C 269.722656 167.007812 269.199219 170.367188 267.460938 173.214844 C 265.171875 176.976562 261.175781 179.226562 256.773438 179.226562 Z M 174.460938 155.429688 C 198.210938 155.429688 226.929688 159.539062 251.910156 174.730469 C 253.382812 175.625 255.0625 176.101562 256.773438 176.101562 C 260.082031 176.101562 263.078125 174.414062 264.792969 171.597656 C 266.09375 169.457031 266.484375 166.9375 265.894531 164.507812 C 265.304688 162.070312 263.796875 160.015625 261.660156 158.714844 C 200.867188 121.742188 123.828125 142.136719 120.578125 143.023438 C 115.601562 144.378906 112.648438 149.539062 114.003906 154.523438 C 115.355469 159.496094 120.519531 162.457031 125.507812 161.113281 C 125.882812 161.003906 146.796875 155.429688 174.460938 155.429688 Z M 174.460938 155.429688 "/>
<path style=" stroke:none;fill-rule:nonzero;fill:rgb(100%,100%,100%);fill-opacity:1;" d="M 244.207031 210.210938 C 242.546875 210.210938 240.867188 209.769531 239.34375 208.84375 C 193.320312 180.851562 132.101562 197.085938 131.488281 197.25 C 126.492188 198.617188 121.335938 195.664062 119.976562 190.675781 C 118.613281 185.679688 121.558594 180.523438 126.554688 179.164062 C 129.371094 178.394531 196.253906 160.6875 249.085938 192.824219 C 253.507812 195.515625 254.914062 201.285156 252.226562 205.707031 C 250.460938 208.605469 247.371094 210.210938 244.207031 210.210938 Z M 244.207031 210.210938 "/>
<path style=" stroke:none;fill-rule:nonzero;fill:rgb(12.159729%,12.939453%,16.859436%);fill-opacity:1;" d="M 244.207031 211.773438 C 242.207031 211.773438 240.242188 211.222656 238.535156 210.179688 C 193.324219 182.683594 132.507812 198.59375 131.894531 198.757812 C 129.082031 199.53125 126.132812 199.152344 123.59375 197.703125 C 121.054688 196.253906 119.238281 193.902344 118.46875 191.085938 C 116.882812 185.269531 120.324219 179.242188 126.144531 177.65625 C 128.992188 176.878906 196.496094 159.007812 249.898438 191.492188 C 255.050781 194.625 256.695312 201.367188 253.5625 206.519531 C 251.558594 209.804688 248.0625 211.773438 244.207031 211.773438 Z M 173.273438 190.929688 C 193.835938 190.929688 218.6875 194.449219 240.160156 207.511719 C 241.382812 208.253906 242.78125 208.648438 244.210938 208.648438 C 246.964844 208.648438 249.464844 207.242188 250.898438 204.894531 C 253.132812 201.210938 251.960938 196.398438 248.277344 194.15625 C 196.015625 162.371094 129.761719 179.902344 126.96875 180.667969 C 122.8125 181.804688 120.355469 186.105469 121.488281 190.261719 C 122.039062 192.273438 123.335938 193.953125 125.148438 194.988281 C 126.960938 196.023438 129.070312 196.292969 131.078125 195.742188 C 131.414062 195.648438 149.460938 190.929688 173.273438 190.929688 Z M 173.273438 190.929688 "/>
<path style=" stroke:none;fill-rule:nonzero;fill:rgb(100%,100%,100%);fill-opacity:1;" d="M 230.445312 240.660156 C 229.0625 240.660156 227.660156 240.292969 226.394531 239.523438 C 186.355469 215.167969 133.105469 229.285156 132.574219 229.429688 C 128.414062 230.558594 124.117188 228.109375 122.980469 223.949219 C 121.847656 219.789062 124.300781 215.492188 128.460938 214.355469 C 130.902344 213.695312 188.796875 198.367188 234.511719 226.175781 C 238.199219 228.417969 239.371094 233.222656 237.128906 236.910156 C 235.65625 239.324219 233.085938 240.660156 230.445312 240.660156 Z M 230.445312 240.660156 "/>
<path style=" stroke:none;fill-rule:nonzero;fill:rgb(12.159729%,12.939453%,16.859436%);fill-opacity:1;" d="M 230.445312 242.222656 C 228.726562 242.222656 227.046875 241.75 225.578125 240.851562 C 186.121094 216.847656 133.511719 230.789062 132.988281 230.933594 C 127.992188 232.289062 122.832031 229.335938 121.472656 224.359375 C 120.113281 219.367188 123.0625 214.207031 128.050781 212.84375 C 130.523438 212.171875 189.136719 196.742188 235.320312 224.835938 C 237.460938 226.136719 238.964844 228.195312 239.558594 230.628906 C 240.148438 233.058594 239.757812 235.578125 238.457031 237.71875 C 236.75 240.539062 233.753906 242.222656 230.445312 242.222656 Z M 168.9375 223.652344 C 186.792969 223.652344 208.398438 226.742188 227.207031 238.183594 C 230.070312 239.929688 234.058594 238.945312 235.789062 236.089844 C 236.660156 234.664062 236.917969 232.988281 236.523438 231.363281 C 236.128906 229.742188 235.125 228.371094 233.699219 227.503906 C 188.652344 200.101562 131.292969 215.199219 128.871094 215.855469 C 125.550781 216.761719 123.582031 220.210938 124.488281 223.53125 C 125.394531 226.851562 128.835938 228.832031 132.164062 227.914062 C 132.453125 227.839844 148.15625 223.652344 168.9375 223.652344 Z M 168.9375 223.652344 "/>
<g clip-path="url(#clip1)" clip-rule="nonzero">
<g clip-path="url(#clip2)" clip-rule="nonzero">
<g clip-path="url(#clip3)" clip-rule="nonzero">
<g clip-path="url(#clip4)" clip-rule="nonzero">
<g clip-path="url(#clip5)" clip-rule="nonzero">
<g clip-path="url(#clip6)" clip-rule="nonzero">
<path style=" stroke:none;fill-rule:nonzero;fill:rgb(8.239746%,66.668701%,91.758728%);fill-opacity:1;" d="M 194.941406 104.804688 C 193.109375 103.828125 190.820312 104.519531 189.84375 106.351562 C 188.867188 108.1875 189.574219 110.457031 191.40625 111.433594 C 193.25 112.414062 195.53125 111.738281 196.507812 109.90625 C 197.484375 108.070312 196.785156 105.789062 194.941406 104.804688 "/>
</g>
</g>
</g>
</g>
</g>
</g>
<g clip-path="url(#clip7)" clip-rule="nonzero">
<g clip-path="url(#clip8)" clip-rule="nonzero">
<g clip-path="url(#clip9)" clip-rule="nonzero">
<g clip-path="url(#clip10)" clip-rule="nonzero">
<path style=" stroke:none;fill-rule:nonzero;fill:rgb(8.239746%,66.668701%,91.758728%);fill-opacity:1;" d="M 229.910156 70.34375 C 224.390625 67.398438 217.542969 69.472656 214.617188 74.964844 C 211.691406 80.453125 213.789062 87.28125 219.3125 90.226562 C 224.832031 93.167969 231.671875 91.105469 234.597656 85.613281 C 237.523438 80.125 235.429688 73.285156 229.910156 70.34375 "/>
</g>
</g>
</g>
</g>
<g clip-path="url(#clip11)" clip-rule="nonzero">
<g clip-path="url(#clip12)" clip-rule="nonzero">
<g clip-path="url(#clip13)" clip-rule="nonzero">
<g clip-path="url(#clip14)" clip-rule="nonzero">
<path style=" stroke:none;fill-rule:nonzero;fill:rgb(8.239746%,66.668701%,91.758728%);fill-opacity:1;" d="M 207.328125 88.199219 C 203.652344 86.238281 199.082031 87.617188 197.132812 91.273438 C 195.183594 94.929688 196.585938 99.496094 200.261719 101.457031 C 203.9375 103.414062 208.511719 102.035156 210.460938 98.378906 C 212.410156 94.722656 211.003906 90.160156 207.328125 88.199219 "/>
</g>
</g>
</g>
</g>
<g clip-path="url(#clip15)" clip-rule="nonzero">
<g clip-path="url(#clip16)" clip-rule="nonzero">
<g clip-path="url(#clip17)" clip-rule="nonzero">
<g clip-path="url(#clip18)" clip-rule="nonzero">
<g clip-path="url(#clip19)" clip-rule="nonzero">
<g clip-path="url(#clip20)" clip-rule="nonzero">
<path style=" stroke:none;fill-rule:nonzero;fill:rgb(8.239746%,66.668701%,91.758728%);fill-opacity:1;" d="M 316.660156 83.148438 L 315.058594 76.925781 L 327.15625 50.285156 L 311.375 54.25 L 309.890625 48.46875 L 334.683594 42.242188 L 336.058594 47.605469 L 323.429688 75.320312 L 342.699219 70.484375 L 344.179688 76.242188 Z M 281.375 62.945312 L 281.753906 57.78125 L 297.878906 40.523438 L 284.765625 39.511719 L 285.113281 34.714844 L 305.71875 36.304688 L 305.394531 40.75 L 288.578125 58.695312 L 304.59375 59.929688 L 304.246094 64.710938 Z M 252.101562 65.472656 L 253.71875 61.636719 L 270.605469 52.679688 L 260.742188 48.503906 L 262.246094 44.945312 L 277.738281 51.5 L 276.34375 54.804688 L 258.753906 64.105469 L 270.796875 69.203125 L 269.296875 72.75 Z M 344.140625 85.164062 C 356.015625 84.296875 365.039062 76.730469 356.074219 62.777344 C 370.933594 56.3125 356.675781 29.550781 337.382812 33.632812 C 345.335938 18.710938 318.691406 4.507812 310.738281 19.429688 C 311.226562 3.398438 290.390625 -8.375 277.648438 6.582031 C 266.308594 -4.253906 243.027344 7.308594 254.835938 27.96875 C 241.507812 20.863281 236.003906 41.886719 244.890625 46.625 C 232.023438 49.355469 232.953125 69.011719 248.273438 72.382812 C 237.859375 81.214844 253.640625 94.425781 268.5 87.960938 C 260.535156 102.894531 285.667969 110.667969 298.066406 98.113281 C 303.441406 120.140625 332.242188 115.621094 329.335938 99.703125 C 338.207031 104.433594 355.480469 96.003906 344.140625 85.164062 "/>
</g>
</g>
</g>
</g>
</g>
</g>
</g>
</svg>
